<?xml version="1.0" encoding="UTF-8" standalone="no"?>
<!DOCTYPE svg PUBLIC "-//W3C//DTD SVG 1.1//EN"
 "http://www.w3.org/Graphics/SVG/1.1/DTD/svg11.dtd">
<!-- Generated by graphviz version 2.40.1 (20161225.0304)
 -->
<!-- Title: G Pages: 1 -->
<svg width="1029pt" height="403pt"
 viewBox="0.00 0.00 1028.52 403.10" xmlns="http://www.w3.org/2000/svg" xmlns:xlink="http://www.w3.org/1999/xlink">
<g id="graph0" class="graph" transform="scale(1 1) rotate(0) translate(21.6 381.4994)">
<title>G</title>
<polygon fill="#ffffff" stroke="transparent" points="-21.6,21.6 -21.6,-381.4994 1006.9184,-381.4994 1006.9184,21.6 -21.6,21.6"/>
<!-- Consts.ts -->
<g id="node1" class="node">
<title>Consts.ts</title>
<path fill="none" stroke="#27ae60" d="M978.1263,-183.7997C978.1263,-183.7997 926.4948,-183.7997 926.4948,-183.7997 922.8948,-183.7997 919.2949,-180.1998 919.2949,-176.5999 919.2949,-176.5999 919.2949,-169.4001 919.2949,-169.4001 919.2949,-165.8002 922.8948,-162.2003 926.4948,-162.2003 926.4948,-162.2003 978.1263,-162.2003 978.1263,-162.2003 981.7263,-162.2003 985.3262,-165.8002 985.3262,-169.4001 985.3262,-169.4001 985.3262,-176.5999 985.3262,-176.5999 985.3262,-180.1998 981.7263,-183.7997 978.1263,-183.7997"/>
<text text-anchor="middle" x="952.3105" y="-170.2994" font-family="Arial" font-size="12.00" fill="#27ae60">Consts.ts</text>
</g>
<!-- Entity.ts -->
<g id="node2" class="node">
<title>Entity.ts</title>
<path fill="none" stroke="#2c3e50" d="M665.2752,-136.7997C665.2752,-136.7997 622.0959,-136.7997 622.0959,-136.7997 618.496,-136.7997 614.8961,-133.1998 614.8961,-129.5999 614.8961,-129.5999 614.8961,-122.4001 614.8961,-122.4001 614.8961,-118.8002 618.496,-115.2003 622.0959,-115.2003 622.0959,-115.2003 665.2752,-115.2003 665.2752,-115.2003 668.8751,-115.2003 672.475,-118.8002 672.475,-122.4001 672.475,-122.4001 672.475,-129.5999 672.475,-129.5999 672.475,-133.1998 668.8751,-136.7997 665.2752,-136.7997"/>
<text text-anchor="middle" x="643.6855" y="-123.2994" font-family="Arial" font-size="12.00" fill="#2c3e50">Entity.ts</text>
</g>
<!-- Entity.ts&#45;&gt;Consts.ts -->
<g id="edge1" class="edge">
<title>Entity.ts&#45;&gt;Consts.ts</title>
<path fill="none" stroke="#34495e" d="M672.7202,-130.4216C727.1604,-138.7123 844.8339,-156.6326 908.7915,-166.3726"/>
<polygon fill="#34495e" stroke="#34495e" points="908.5405,-169.8746 918.9535,-167.9201 909.5944,-162.9544 908.5405,-169.8746"/>
</g>
<!-- Token.ts -->
<g id="node3" class="node">
<title>Token.ts</title>
<path fill="none" stroke="#2c3e50" d="M761.9152,-125.7997C761.9152,-125.7997 715.9344,-125.7997 715.9344,-125.7997 712.3345,-125.7997 708.7346,-122.1998 708.7346,-118.5999 708.7346,-118.5999 708.7346,-111.4001 708.7346,-111.4001 708.7346,-107.8002 712.3345,-104.2003 715.9344,-104.2003 715.9344,-104.2003 761.9152,-104.2003 761.9152,-104.2003 765.5151,-104.2003 769.115,-107.8002 769.115,-111.4001 769.115,-111.4001 769.115,-118.5999 769.115,-118.5999 769.115,-122.1998 765.5151,-125.7997 761.9152,-125.7997"/>
<text text-anchor="middle" x="738.9248" y="-112.2994" font-family="Arial" font-size="12.00" fill="#2c3e50">Token.ts</text>
</g>
<!-- Entity.ts&#45;&gt;Token.ts -->
<g id="edge2" class="edge">
<title>Entity.ts&#45;&gt;Token.ts</title>
<path fill="none" stroke="#34495e" d="M672.5189,-122.6698C680.7039,-121.7244 689.7707,-120.6772 698.5065,-119.6683"/>
<polygon fill="#34495e" stroke="#34495e" points="699.0045,-123.1341 708.5368,-118.5098 698.2013,-116.1803 699.0045,-123.1341"/>
</g>
<!-- Renderer.ts -->
<g id="node12" class="node">
<title>Renderer.ts</title>
<path fill="none" stroke="#2c3e50" d="M876.1195,-47.7997C876.1195,-47.7997 812.4528,-47.7997 812.4528,-47.7997 808.8528,-47.7997 805.2529,-44.1998 805.2529,-40.5999 805.2529,-40.5999 805.2529,-33.4001 805.2529,-33.4001 805.2529,-29.8002 808.8528,-26.2003 812.4528,-26.2003 812.4528,-26.2003 876.1195,-26.2003 876.1195,-26.2003 879.7194,-26.2003 883.3193,-29.8002 883.3193,-33.4001 883.3193,-33.4001 883.3193,-40.5999 883.3193,-40.5999 883.3193,-44.1998 879.7194,-47.7997 876.1195,-47.7997"/>
<text text-anchor="middle" x="844.2861" y="-34.2994" font-family="Arial" font-size="12.00" fill="#2c3e50">Renderer.ts</text>
</g>
<!-- Token.ts&#45;&gt;Renderer.ts -->
<g id="edge21" class="edge">
<title>Token.ts&#45;&gt;Renderer.ts</title>
<path fill="none" stroke="#34495e" d="M753.5748,-104.1544C771.0893,-91.1883 800.6124,-69.3321 821.2038,-54.088"/>
<polygon fill="#34495e" stroke="#34495e" points="823.4661,-56.768 829.4209,-48.0049 819.3011,-51.1419 823.4661,-56.768"/>
</g>
<!-- EntityManager.ts -->
<g id="node4" class="node">
<title>EntityManager.ts</title>
<path fill="none" stroke="#2c3e50" d="M390.4239,-204.7997C390.4239,-204.7997 299.0644,-204.7997 299.0644,-204.7997 295.4645,-204.7997 291.8646,-201.1998 291.8646,-197.5999 291.8646,-197.5999 291.8646,-190.4001 291.8646,-190.4001 291.8646,-186.8002 295.4645,-183.2003 299.0644,-183.2003 299.0644,-183.2003 390.4239,-183.2003 390.4239,-183.2003 394.0238,-183.2003 397.6237,-186.8002 397.6237,-190.4001 397.6237,-190.4001 397.6237,-197.5999 397.6237,-197.5999 397.6237,-201.1998 394.0238,-204.7997 390.4239,-204.7997"/>
<text text-anchor="middle" x="344.7441" y="-191.2994" font-family="Arial" font-size="12.00" fill="#2c3e50">EntityManager.ts</text>
</g>
<!-- EntityManager.ts&#45;&gt;Consts.ts -->
<g id="edge3" class="edge">
<title>EntityManager.ts&#45;&gt;Consts.ts</title>
<path fill="none" stroke="#34495e" d="M357.2739,-204.9025C373.6158,-218.4854 403.6465,-241.325 433.4336,-253 482.7591,-272.333 498.1333,-272 551.1123,-272 551.1123,-272 551.1123,-272 738.9248,-272 815.6751,-272 894.7373,-218.6464 931.3542,-190.2746"/>
<polygon fill="#34495e" stroke="#34495e" points="933.6485,-192.9224 939.3194,-183.973 929.3053,-187.4326 933.6485,-192.9224"/>
</g>
<!-- EntityManager.ts&#45;&gt;Entity.ts -->
<g id="edge4" class="edge">
<title>EntityManager.ts&#45;&gt;Entity.ts</title>
<path fill="none" stroke="#34495e" d="M397.6419,-189.1432C424.6957,-186.1084 458.0329,-181.5169 487.4336,-175 528.2577,-165.9511 573.7497,-151.1254 605.07,-140.1479"/>
<polygon fill="#34495e" stroke="#34495e" points="606.4593,-143.369 614.7171,-136.7312 604.1224,-136.7706 606.4593,-143.369"/>
</g>
<!-- Map.ts -->
<g id="node5" class="node">
<title>Map.ts</title>
<path fill="none" stroke="#2c3e50" d="M480.2338,-165.7997C480.2338,-165.7997 440.6334,-165.7997 440.6334,-165.7997 437.0335,-165.7997 433.4336,-162.1998 433.4336,-158.5999 433.4336,-158.5999 433.4336,-151.4001 433.4336,-151.4001 433.4336,-147.8002 437.0335,-144.2003 440.6334,-144.2003 440.6334,-144.2003 480.2338,-144.2003 480.2338,-144.2003 483.8337,-144.2003 487.4336,-147.8002 487.4336,-151.4001 487.4336,-151.4001 487.4336,-158.5999 487.4336,-158.5999 487.4336,-162.1998 483.8337,-165.7997 480.2338,-165.7997"/>
<text text-anchor="middle" x="460.4336" y="-152.2994" font-family="Arial" font-size="12.00" fill="#2c3e50">Map.ts</text>
</g>
<!-- EntityManager.ts&#45;&gt;Map.ts -->
<g id="edge5" class="edge">
<title>EntityManager.ts&#45;&gt;Map.ts</title>
<path fill="none" stroke="#34495e" d="M376.9701,-183.1363C391.4492,-178.2553 408.6119,-172.4696 423.5976,-167.4178"/>
<polygon fill="#34495e" stroke="#34495e" points="424.723,-170.732 433.0809,-164.2208 422.4868,-164.0988 424.723,-170.732"/>
</g>
<!-- Utils.ts -->
<g id="node6" class="node">
<title>Utils.ts</title>
<path fill="none" stroke="#27ae60" d="M480.2338,-243.7997C480.2338,-243.7997 440.6334,-243.7997 440.6334,-243.7997 437.0335,-243.7997 433.4336,-240.1998 433.4336,-236.5999 433.4336,-236.5999 433.4336,-229.4001 433.4336,-229.4001 433.4336,-225.8002 437.0335,-222.2003 440.6334,-222.2003 440.6334,-222.2003 480.2338,-222.2003 480.2338,-222.2003 483.8337,-222.2003 487.4336,-225.8002 487.4336,-229.4001 487.4336,-229.4001 487.4336,-236.5999 487.4336,-236.5999 487.4336,-240.1998 483.8337,-243.7997 480.2338,-243.7997"/>
<text text-anchor="middle" x="460.4336" y="-230.2994" font-family="Arial" font-size="12.00" fill="#27ae60">Utils.ts</text>
</g>
<!-- EntityManager.ts&#45;&gt;Utils.ts -->
<g id="edge6" class="edge">
<title>EntityManager.ts&#45;&gt;Utils.ts</title>
<path fill="none" stroke="#34495e" d="M376.9701,-204.8637C391.4492,-209.7447 408.6119,-215.5304 423.5976,-220.5822"/>
<polygon fill="#34495e" stroke="#34495e" points="422.4868,-223.9012 433.0809,-223.7792 424.723,-217.268 422.4868,-223.9012"/>
</g>
<!-- Map.ts&#45;&gt;Consts.ts -->
<g id="edge16" class="edge">
<title>Map.ts&#45;&gt;Consts.ts</title>
<path fill="none" stroke="#34495e" d="M487.6941,-156.3999C545.9653,-159.3451 686.9801,-166.2211 805.2695,-170 840.0449,-171.1109 879.4604,-171.8892 908.7234,-172.3742"/>
<polygon fill="#34495e" stroke="#34495e" points="908.9627,-175.8784 919.0177,-172.5396 909.0753,-168.8793 908.9627,-175.8784"/>
</g>
<!-- Tile.ts -->
<g id="node13" class="node">
<title>Tile.ts</title>
<path fill="none" stroke="#2c3e50" d="M570.9125,-127.7997C570.9125,-127.7997 531.3121,-127.7997 531.3121,-127.7997 527.7122,-127.7997 524.1123,-124.1998 524.1123,-120.5999 524.1123,-120.5999 524.1123,-113.4001 524.1123,-113.4001 524.1123,-109.8002 527.7122,-106.2003 531.3121,-106.2003 531.3121,-106.2003 570.9125,-106.2003 570.9125,-106.2003 574.5124,-106.2003 578.1123,-109.8002 578.1123,-113.4001 578.1123,-113.4001 578.1123,-120.5999 578.1123,-120.5999 578.1123,-124.1998 574.5124,-127.7997 570.9125,-127.7997"/>
<text text-anchor="middle" x="551.1123" y="-114.2994" font-family="Arial" font-size="12.00" fill="#2c3e50">Tile.ts</text>
</g>
<!-- Map.ts&#45;&gt;Tile.ts -->
<g id="edge17" class="edge">
<title>Map.ts&#45;&gt;Tile.ts</title>
<path fill="none" stroke="#34495e" d="M486.6616,-144.0088C495.7629,-140.1948 506.1219,-135.8538 515.8325,-131.7844"/>
<polygon fill="#34495e" stroke="#34495e" points="517.3862,-134.9283 525.2564,-127.8352 514.6807,-128.4723 517.3862,-134.9283"/>
</g>
<!-- Events.ts -->
<g id="node7" class="node">
<title>Events.ts</title>
<path fill="none" stroke="#27ae60" d="M249.0326,-359.7997C249.0326,-359.7997 197.7233,-359.7997 197.7233,-359.7997 194.1234,-359.7997 190.5235,-356.1998 190.5235,-352.5999 190.5235,-352.5999 190.5235,-345.4001 190.5235,-345.4001 190.5235,-341.8002 194.1234,-338.2003 197.7233,-338.2003 197.7233,-338.2003 249.0326,-338.2003 249.0326,-338.2003 252.6325,-338.2003 256.2324,-341.8002 256.2324,-345.4001 256.2324,-345.4001 256.2324,-352.5999 256.2324,-352.5999 256.2324,-356.1998 252.6325,-359.7997 249.0326,-359.7997"/>
<text text-anchor="middle" x="223.3779" y="-346.2994" font-family="Arial" font-size="12.00" fill="#27ae60">Events.ts</text>
</g>
<!-- Game.ts -->
<g id="node8" class="node">
<title>Game.ts</title>
<path fill="none" stroke="#2c3e50" d="M147.6752,-145.7997C147.6752,-145.7997 100.3815,-145.7997 100.3815,-145.7997 96.7816,-145.7997 93.1816,-142.1998 93.1816,-138.5999 93.1816,-138.5999 93.1816,-131.4001 93.1816,-131.4001 93.1816,-127.8002 96.7816,-124.2003 100.3815,-124.2003 100.3815,-124.2003 147.6752,-124.2003 147.6752,-124.2003 151.2751,-124.2003 154.875,-127.8002 154.875,-131.4001 154.875,-131.4001 154.875,-138.5999 154.875,-138.5999 154.875,-142.1998 151.2751,-145.7997 147.6752,-145.7997"/>
<text text-anchor="middle" x="124.0283" y="-132.2994" font-family="Arial" font-size="12.00" fill="#2c3e50">Game.ts</text>
</g>
<!-- Game.ts&#45;&gt;Consts.ts -->
<g id="edge7" class="edge">
<title>Game.ts&#45;&gt;Consts.ts</title>
<path fill="none" stroke="#34495e" d="M130.4466,-145.947C153.8227,-184.2588 238.6272,-310 344.7441,-310 344.7441,-310 344.7441,-310 738.9248,-310 807.4341,-310 827.4471,-295.6696 883.3027,-256 907.4826,-238.8271 928.1396,-211.1659 940.3884,-192.5475"/>
<polygon fill="#34495e" stroke="#34495e" points="943.4267,-194.2926 945.8531,-183.9794 937.5248,-190.5284 943.4267,-194.2926"/>
</g>
<!-- Game.ts&#45;&gt;Map.ts -->
<g id="edge11" class="edge">
<title>Game.ts&#45;&gt;Map.ts</title>
<path fill="none" stroke="#34495e" d="M154.8901,-137.4392C166.1567,-138.2967 179.0024,-139.2361 190.7012,-140 273.6733,-145.4177 371.0859,-150.5255 423.1456,-153.1543"/>
<polygon fill="#34495e" stroke="#34495e" points="423.0769,-156.6552 433.24,-153.6616 423.4284,-149.664 423.0769,-156.6552"/>
</g>
<!-- Game.ts&#45;&gt;Events.ts -->
<g id="edge8" class="edge">
<title>Game.ts&#45;&gt;Events.ts</title>
<path fill="none" stroke="#34495e" d="M125.6222,-145.8239C130.5651,-176.4273 147.9509,-265.1729 190.7012,-324 192.6748,-326.7158 195.0251,-329.2771 197.5473,-331.649"/>
<polygon fill="#34495e" stroke="#34495e" points="195.4876,-334.4874 205.4248,-338.1619 199.948,-329.0924 195.4876,-334.4874"/>
</g>
<!-- Input.ts -->
<g id="node9" class="node">
<title>Input.ts</title>
<path fill="none" stroke="#2c3e50" d="M571.7711,-87.7997C571.7711,-87.7997 530.4536,-87.7997 530.4536,-87.7997 526.8536,-87.7997 523.2537,-84.1998 523.2537,-80.5999 523.2537,-80.5999 523.2537,-73.4001 523.2537,-73.4001 523.2537,-69.8002 526.8536,-66.2003 530.4536,-66.2003 530.4536,-66.2003 571.7711,-66.2003 571.7711,-66.2003 575.371,-66.2003 578.9709,-69.8002 578.9709,-73.4001 578.9709,-73.4001 578.9709,-80.5999 578.9709,-80.5999 578.9709,-84.1998 575.371,-87.7997 571.7711,-87.7997"/>
<text text-anchor="middle" x="551.1123" y="-74.2994" font-family="Arial" font-size="12.00" fill="#2c3e50">Input.ts</text>
</g>
<!-- Game.ts&#45;&gt;Input.ts -->
<g id="edge9" class="edge">
<title>Game.ts&#45;&gt;Input.ts</title>
<path fill="none" stroke="#34495e" d="M154.8799,-127.5122C166.1455,-124.8002 178.9931,-121.7332 190.7012,-119 235.6831,-108.4993 246.3696,-102.8196 292.0547,-96 370.1298,-84.3454 462.5571,-79.7456 513.2041,-78.0019"/>
<polygon fill="#34495e" stroke="#34495e" points="513.4764,-81.495 523.3573,-77.6717 513.2487,-74.4987 513.4764,-81.495"/>
</g>
<!-- Interface.ts -->
<g id="node10" class="node">
<title>Interface.ts</title>
<path fill="none" stroke="#2c3e50" d="M375.4065,-126.7997C375.4065,-126.7997 314.0818,-126.7997 314.0818,-126.7997 310.4819,-126.7997 306.8819,-123.1998 306.8819,-119.5999 306.8819,-119.5999 306.8819,-112.4001 306.8819,-112.4001 306.8819,-108.8002 310.4819,-105.2003 314.0818,-105.2003 314.0818,-105.2003 375.4065,-105.2003 375.4065,-105.2003 379.0064,-105.2003 382.6063,-108.8002 382.6063,-112.4001 382.6063,-112.4001 382.6063,-119.5999 382.6063,-119.5999 382.6063,-123.1998 379.0064,-126.7997 375.4065,-126.7997"/>
<text text-anchor="middle" x="344.7441" y="-113.2994" font-family="Arial" font-size="12.00" fill="#2c3e50">Interface.ts</text>
</g>
<!-- Game.ts&#45;&gt;Interface.ts -->
<g id="edge10" class="edge">
<title>Game.ts&#45;&gt;Interface.ts</title>
<path fill="none" stroke="#34495e" d="M154.7179,-132.3581C191.5634,-129.1863 253.7789,-123.8306 296.9376,-120.1154"/>
<polygon fill="#34495e" stroke="#34495e" points="297.2643,-123.6003 306.9272,-119.2554 296.6638,-116.6261 297.2643,-123.6003"/>
</g>
<!-- Player.ts -->
<g id="node11" class="node">
<title>Player.ts</title>
<path fill="none" stroke="#2c3e50" d="M247.1976,-204.7997C247.1976,-204.7997 199.5582,-204.7997 199.5582,-204.7997 195.9583,-204.7997 192.3584,-201.1998 192.3584,-197.5999 192.3584,-197.5999 192.3584,-190.4001 192.3584,-190.4001 192.3584,-186.8002 195.9583,-183.2003 199.5582,-183.2003 199.5582,-183.2003 247.1976,-183.2003 247.1976,-183.2003 250.7975,-183.2003 254.3975,-186.8002 254.3975,-190.4001 254.3975,-190.4001 254.3975,-197.5999 254.3975,-197.5999 254.3975,-201.1998 250.7975,-204.7997 247.1976,-204.7997"/>
<text text-anchor="middle" x="223.3779" y="-191.2994" font-family="Arial" font-size="12.00" fill="#2c3e50">Player.ts</text>
</g>
<!-- Game.ts&#45;&gt;Player.ts -->
<g id="edge12" class="edge">
<title>Game.ts&#45;&gt;Player.ts</title>
<path fill="none" stroke="#34495e" d="M142.2506,-145.8215C157.281,-154.7475 178.8378,-167.5493 195.9529,-177.7133"/>
<polygon fill="#34495e" stroke="#34495e" points="194.5495,-180.9505 204.9348,-183.0473 198.1238,-174.9318 194.5495,-180.9505"/>
</g>
<!-- Game.ts&#45;&gt;Renderer.ts -->
<g id="edge13" class="edge">
<title>Game.ts&#45;&gt;Renderer.ts</title>
<path fill="none" stroke="#34495e" d="M138.0613,-123.8729C171.653,-98.3941 260.1952,-38 344.7441,-38 344.7441,-38 344.7441,-38 643.6855,-38 695.2668,-38 754.3077,-37.6653 794.9119,-37.3832"/>
<polygon fill="#34495e" stroke="#34495e" points="795.1045,-40.882 805.0793,-37.3109 795.0547,-33.8821 795.1045,-40.882"/>
</g>
<!-- Input.ts&#45;&gt;Consts.ts -->
<g id="edge14" class="edge">
<title>Input.ts&#45;&gt;Consts.ts</title>
<path fill="none" stroke="#34495e" d="M579.1214,-76.4752C621.09,-76.3207 702.4976,-78.4773 769.2695,-95 826.2785,-109.1068 888.2976,-138.879 923.5277,-157.2871"/>
<polygon fill="#34495e" stroke="#34495e" points="922.2518,-160.5717 932.7276,-162.1553 925.5258,-154.3845 922.2518,-160.5717"/>
</g>
<!-- Interface.ts&#45;&gt;Tile.ts -->
<g id="edge15" class="edge">
<title>Interface.ts&#45;&gt;Tile.ts</title>
<path fill="none" stroke="#34495e" d="M382.5952,-116.1834C419.8743,-116.3641 476.4813,-116.6384 513.6317,-116.8184"/>
<polygon fill="#34495e" stroke="#34495e" points="514.0104,-120.3202 524.0272,-116.8688 514.0444,-113.3202 514.0104,-120.3202"/>
</g>
<!-- Player.ts&#45;&gt;EntityManager.ts -->
<g id="edge18" class="edge">
<title>Player.ts&#45;&gt;EntityManager.ts</title>
<path fill="none" stroke="#34495e" d="M254.6327,-194C262.9884,-194 272.3263,-194 281.7388,-194"/>
<polygon fill="#34495e" stroke="#34495e" points="281.9387,-197.5001 291.9387,-194 281.9386,-190.5001 281.9387,-197.5001"/>
</g>
<!-- Renderer.ts&#45;&gt;Consts.ts -->
<g id="edge19" class="edge">
<title>Renderer.ts&#45;&gt;Consts.ts</title>
<path fill="none" stroke="#34495e" d="M865.0044,-47.8957C871.3208,-51.8157 877.992,-56.6164 883.3027,-62 910.3532,-89.4217 931.8717,-129.2823 943.3009,-153.0289"/>
<polygon fill="#34495e" stroke="#34495e" points="940.1558,-154.5659 947.5681,-162.1361 946.4945,-151.5958 940.1558,-154.5659"/>
</g>
<!-- Tile.ts&#45;&gt;Entity.ts -->
<g id="edge20" class="edge">
<title>Tile.ts&#45;&gt;Entity.ts</title>
<path fill="none" stroke="#34495e" d="M578.3866,-119.6516C586.59,-120.4492 595.7577,-121.3404 604.57,-122.1972"/>
<polygon fill="#34495e" stroke="#34495e" points="604.3808,-125.6952 614.6726,-123.1793 605.0582,-118.728 604.3808,-125.6952"/>
</g>
<!-- index.ts -->
<g id="node14" class="node">
<title>index.ts</title>
<path fill="none" stroke="#2c3e50" d="M50.3345,-68.7997C50.3345,-68.7997 7.021,-68.7997 7.021,-68.7997 3.4211,-68.7997 -.1788,-65.1998 -.1788,-61.5999 -.1788,-61.5999 -.1788,-54.4001 -.1788,-54.4001 -.1788,-50.8002 3.4211,-47.2003 7.021,-47.2003 7.021,-47.2003 50.3345,-47.2003 50.3345,-47.2003 53.9344,-47.2003 57.5343,-50.8002 57.5343,-54.4001 57.5343,-54.4001 57.5343,-61.5999 57.5343,-61.5999 57.5343,-65.1998 53.9344,-68.7997 50.3345,-68.7997"/>
<text text-anchor="middle" x="28.6777" y="-55.2994" font-family="Arial" font-size="12.00" fill="#2c3e50">index.ts</text>
</g>
<!-- index.ts&#45;&gt;Game.ts -->
<g id="edge22" class="edge">
<title>index.ts&#45;&gt;Game.ts</title>
<path fill="none" stroke="#34495e" d="M42.3391,-69.0322C58.0579,-81.7258 84.0698,-102.7317 102.5144,-117.6265"/>
<polygon fill="#34495e" stroke="#34495e" points="100.4133,-120.4285 110.3922,-123.9882 104.8112,-114.9825 100.4133,-120.4285"/>
</g>
<!-- index.ts&#45;&gt;Renderer.ts -->
<g id="edge23" class="edge">
<title>index.ts&#45;&gt;Renderer.ts</title>
<path fill="none" stroke="#34495e" d="M50.2424,-47.0906C85.5061,-30.2895 158.1283,0 223.3779,0 223.3779,0 223.3779,0 643.6855,0 697.3902,0 757.8609,-12.9837 798.236,-23.5686"/>
<polygon fill="#34495e" stroke="#34495e" points="797.4864,-26.9911 808.0515,-26.1986 799.2981,-20.2296 797.4864,-26.9911"/>
</g>
</g>
</svg>
